<svg xmlns="http://www.w3.org/2000/svg" xmlns:xlink="http://www.w3.org/1999/xlink" version="1.1" id="Layer_1" x="0px" y="0px" width="180px" height="38px" viewBox="0 0 180 38" style="enable-background:new 0 0 180 38;" xml:space="preserve"><div xmlns="" id="in-page-channel-node-id" data-channel-name="in_page_channel_RBHFmp"/><link xmlns="" type="text/css" rel="stylesheet" id="dark-mode-custom-link"/><link xmlns="" type="text/css" rel="stylesheet" id="dark-mode-general-link"/><style xmlns="" lang="en" type="text/css" id="dark-mode-custom-style"/><style xmlns="" lang="en" type="text/css" id="dark-mode-native-style"/><style xmlns="" lang="en" type="text/css" id="dark-mode-native-sheet"/><style xmlns="" type="text/css" id="block-image-video"/>
<style type="text/css">
	.st0{display:none;fill:url(#SVGID_1_);}
	.st1{fill:#009DC3;}
	.st2{fill:#6D6E71;}
</style>
<linearGradient id="SVGID_1_" gradientUnits="userSpaceOnUse" x1="-158.1167" y1="263.4474" x2="-157.1167" y2="263.4474" gradientTransform="matrix(180 0 0 -38 28460.9961 10030)">
	<stop offset="0" style="stop-color:#EE2224"/>
	<stop offset="1" style="stop-color:#F16521"/>
</linearGradient>
<path class="st0" d="M138.8,0c-0.1,0-0.2,0-0.3,0c-1.9,0.1-3.1,0.6-3.9,1.5c-1.1,1.4-1.1,3.6-1.1,6.1c0,0.3,0,0.7,0,1v0.3h-1.9v4.1  h1.9v17h4.8v-17h1.5c2.1,0,3.7-1.7,3.8-4.1h-5.3V6.1c0-1.3,0.8-2.1,2.1-2.1c1,0,2.3,0.6,2.8,1.7c0.8-1.1,1.1-2.2,0.6-3.1  C143.4,1,141.3,0,138.8,0L138.8,0z M154.7,8.3c-1.6,0.1-3.1,1.2-4,3.1l-0.5,1V8.8h-4.1v21.1h4.8v-8.5c0-1.1,0-2.5,0.1-3.8  c0.3-3.1,2.6-4.8,4.7-4.8c1.1,0,2,0.5,2.5,1.3c0.8-0.8,1.1-2.1,0.7-3.3c-0.5-1.6-1.9-2.6-3.8-2.6C155,8.3,154.8,8.3,154.7,8.3  L154.7,8.3z M124.9,8.3c-1.6,0.1-3.1,1.2-4,3.1l-0.5,1V8.8h-4.1v21.1h4.8v-8.5c0-1.1,0-2.5,0.1-3.8c0.3-3.1,2.6-4.8,4.7-4.8  c1.1,0,2,0.5,2.5,1.3c0.8-0.8,1.1-2.1,0.7-3.3c-0.5-1.6-1.9-2.6-3.8-2.6C125.2,8.3,125.1,8.3,124.9,8.3L124.9,8.3z M94.8,24.1  c1.7,4,5.2,6.2,9.8,6.2c4,0,6.8-1.4,8.9-4.4l-3.9-1.9c-1.3,1.3-3.2,2.1-5,2.1c-0.4,0-0.8,0-1.2-0.1c-2.9-0.5-4.9-3.5-4.9-7  c0.1-3.7,2.8-6.6,6.2-6.8c0.1,0,0.2,0,0.3,0c2.6,0,4.6,1.8,4.6,3.4c0.1,1.3-1.1,2.2-3.1,2.4c-0.6,0.1-1.4,0.1-2.1,0.1  c-1.7,0-3-0.4-4-1.1c-0.4,1.1-0.3,2.2,0.3,3c0.8,1.2,2.5,1.9,4.8,1.9c1,0,2.1-0.1,3.2-0.4c4.3-1.1,5.4-4.3,5.1-6.7  c-0.4-3.2-3.3-6.6-8.8-6.6c-3.4,0-6.3,1.1-8.2,3.2C93.9,14.7,93,19.9,94.8,24.1L94.8,24.1z M26.8,11.5c-3,3.2-3.9,8.4-2.1,12.6  c1.7,4,5.2,6.2,9.8,6.2c4,0,6.8-1.4,8.9-4.4l-3.9-1.9c-1.3,1.3-3.2,2.1-5,2.1c-0.4,0-0.8,0-1.2-0.1c-2.9-0.5-4.9-3.5-4.9-7  c0.1-3.7,2.8-6.6,6.2-6.8c0.1,0,0.2,0,0.3,0c2.6,0,4.6,1.8,4.6,3.4c0.1,1.3-1.1,2.2-3.1,2.4c-0.6,0.1-1.3,0.1-2.1,0.1  c-1.7,0-3-0.4-4-1.1c-0.4,1.1-0.3,2.2,0.3,3c0.8,1.2,2.5,1.9,4.8,1.9c1,0,2.1-0.1,3.2-0.4c4.3-1.1,5.4-4.3,5.1-6.7  c-0.4-3.2-3.3-6.6-8.8-6.6C31.6,8.3,28.7,9.4,26.8,11.5z M75.3,11.2l-0.4,0.4V8.9l-0.1,0c-2.2,0-4.7,1.3-4.7,4.1v25h4.8V21.3  c0-2.6,0.6-8.5,5.8-8.5c4.1,0,6,3.4,6,6.5c0,3.3-2.1,6.6-6,6.6c-0.9,0-3.1-0.2-4.4-1.5c-0.3,0.9-0.3,2.3,0.4,3.5  c0.6,1,1.9,2.3,4.7,2.4c0.1,0,0.2,0,0.3,0c2.5,0,5-1.1,6.8-3.1c1.9-2.1,3-4.8,3-7.8c0-7.2-5-11-9.6-11C79.4,8.4,77.1,9.4,75.3,11.2  L75.3,11.2z M51.5,11.2l-0.4,0.4V8.9l-0.1,0c-2.2,0-4.7,1.3-4.7,4.1v25h4.8V21.3c0-2.6,0.6-8.5,5.8-8.5c4.1,0,6,3.4,6,6.5  c0,3.3-2.1,6.6-6,6.6c-0.9,0-3.1-0.2-4.4-1.5c-0.3,0.9-0.3,2.3,0.4,3.5c0.6,1,1.9,2.3,4.7,2.4c0.1,0,0.2,0,0.3,0  c2.5,0,5-1.1,6.8-3.1c1.9-2.1,3-4.8,3-7.8c0-7.2-5-11-9.6-11C55.7,8.4,53.3,9.4,51.5,11.2z M5.2,11.2l-0.4,0.4V8.9l-0.1,0  C2.4,8.9,0,10.2,0,13v25h4.8V21.3c0-2.6,0.6-8.5,5.8-8.5c4.1,0,6,3.4,6,6.5c0,3.3-2.1,6.6-6,6.6c-0.9,0-3.1-0.2-4.4-1.5  c-0.3,0.9-0.3,2.3,0.4,3.5c0.6,1,1.9,2.3,4.7,2.4c0.1,0,0.2,0,0.3,0c2.5,0,5-1.1,6.8-3.1c1.9-2.1,3-4.8,3-7.8c0-7.2-5-11-9.6-11  C9.3,8.4,7,9.4,5.2,11.2L5.2,11.2z M175.2,8.9c0,2.1,0,16.7,0,18.4c0,4-2.1,6.1-6.3,6.3c-0.1,0-0.2,0-0.3,0c-2.3,0-5.4-1-6.9-3.2  c-0.4,2-0.2,3.6,0.8,4.9c1.3,1.7,3.8,2.7,6.9,2.7c6.7,0,10.6-3.8,10.6-10.4V8.9L175.2,8.9L175.2,8.9z M161.6,8.9v13.8  c0,2.4,0.6,4.1,1.8,5.4c1.3,1.4,3.1,2.1,5.1,2.1c0.2,0,0.3,0,0.5,0c2.6-0.2,4.2-1,4.7-2.6c0.7-2-0.1-3.4-0.8-4  c0,0.5-0.2,0.9-0.5,1.3c-0.5,0.6-1.4,1-2.7,1c-1.6,0-2.7-1-3.2-2.8c-0.4-1.7-0.4-8.4-0.4-12.4l0-1.8C166.3,8.9,161.6,8.9,161.6,8.9z  "/>
<g>
	<g>
		<path class="st1" d="M19.9,10.6c-0.4,2.1-0.7,4.1-1.2,6c-0.9,4.3-1.9,7.3-2.8,8.9C13.2,30,10,33.6,6.4,36.2    c-3.9-2.5-5.9-3.9-5.9-4.1c1.2-0.8,2.4-1.8,3.5-2.8c2.6-2.5,4.6-5.3,5.9-8.3c1-2.3,2-6.4,2.9-12.2L19.9,10.6z"/>
		<path class="st1" d="M45.2,29.5h-6.4c-2,2.9-4.5,5.4-7.5,7.6L25.4,33c2.4-1.7,4.3-3.7,5.9-5.8c-1.8-0.5-3.4-1.3-4.7-2.4    c-1.5-1.3-2.2-2.8-2.2-4.5c0-1.9,1.3-4.4,3.8-7.3c2.6-3,4.9-4.4,6.8-4.4c5.7,0,8.5,2.6,8.5,7.8c0,1.8-0.3,3.8-1,6.1    c-0.1,0.3-0.2,0.6-0.4,0.9h3V29.5z M37,19c0.4-0.9,0.7-1.7,0.7-2.4c0-1.1-0.5-1.6-1.4-1.6c-0.7,0-1.6,0.5-2.6,1.4    c-1.4,1.3-2.1,2.4-2.1,3.4c0,1.4,1.1,2.2,3.2,2.5C35.4,21.7,36.2,20.7,37,19z"/>
		<path class="st1" d="M64.6,0.9l-1.2,5.6h-7.9c4.2,6.4,6.2,12.4,6.2,17.9c0,1.1-0.3,2.2-0.9,3.3c-0.7,1.3-1.6,1.9-2.6,1.9H43v-6.1    h8.7c1.5,0,2.3-0.3,2.3-1c0-0.1,0-0.3-0.1-0.5c-0.6-2.6-1.3-4.9-2.1-6.8c-0.9-2.1-2.5-4.9-4.6-8.5c0.4-2,0.8-3.2,1-3.7    c0.6-1.3,1.6-1.9,3-1.9H64.6z"/>
		<path class="st1" d="M85.5,13.9l-1.9,8.8c-0.6,2.7-1.8,4.5-3.7,5.5c-1.6,0.9-4.1,1.3-7.6,1.3h-7.8l1.4-6.1h7.6    c2,0,3.2-0.9,3.6-2.7l0.6-2.9c0.1-0.6,0.2-1,0.2-1.3c0-1.2-0.8-1.8-2.5-1.8h-7.8l0.8-3.4c0.3-1.2,0.9-2,1.9-2.3    c0.7-0.2,2.2-0.3,4.5-0.3h6.6c1.2,0,2.1,0.5,2.9,1.4c0.8,0.9,1.1,1.9,1.1,3C85.6,13.3,85.6,13.6,85.5,13.9z"/>
	</g>
</g>
<g>
	<path class="st2" d="M102.8,29.2h-17v-6.1h17V29.2z"/>
	<path class="st2" d="M118,10.6l-2.9,12.7c-0.5,2-0.9,3.3-1.2,3.8c-0.9,1.4-2.6,2.1-4.9,2.1h-7.8v-6.1h4.7c1,0,1.7-0.2,2-0.5   c0.2-0.2,0.3-0.8,0.6-1.9L111,8.4L118,10.6z M118.8,0.7l-1.1,5.5h-6.5l1.1-5.5H118.8z"/>
	<path class="st2" d="M132.1,0.6l-6,28.7h-7.4l6-28.7H132.1z"/>
	<path class="st2" d="M150,29.2h-3c-1.8,0-3.1-0.5-3.8-1.4c-2.4,3.4-5.3,6.1-8.6,8c-3.9-2.5-5.9-3.9-5.9-4.1   c1.2-0.8,2.4-1.8,3.5-2.8c2.6-2.5,4.6-5.3,6-8.3c1-2.3,2-6.4,2.9-12.2l7.1,1.9c-0.4,2.1-1,5.2-2,9.2c-0.2,0.8-0.3,1.3-0.3,1.7   c0,1.3,0.9,2,2.6,2h1.5V29.2z"/>
	<path class="st2" d="M153.6,32.6l-1,5.5h-6.5l1.1-5.5H153.6z M165.3,10.6l-2.9,12.7c-0.5,2-0.9,3.3-1.2,3.8   c-0.9,1.4-2.6,2.1-4.9,2.1h-7.8v-6.1h4.7c1,0,1.7-0.2,2-0.5c0.2-0.2,0.3-0.8,0.6-1.9l2.6-12.3L165.3,10.6z M161.9,32.6l-1.1,5.5   h-6.5l1.1-5.5H161.9z"/>
	<path class="st2" d="M179.1,0.6l-6,28.7h-7.4l6-28.7H179.1z"/>
</g>
</svg>