<svg
                          xmlns="http://www.w3.org/2000/svg"
                          width="69"
                          height="18"
                          viewBox="0 0 69 18"
                          fill="none"
                        >
                          <path
                            d="M1.64877 7.94099C1.31912 8.5412 1.31947 9.26834 1.64968 9.86824L5.16557 16.2555C5.51718 16.8942 6.18853 17.291 6.91767 17.291H67.6162C68.1685 17.291 68.6162 16.8433 68.6162 16.291V8.90486V1.5C68.6162 0.947715 68.1685 0.5 67.6162 0.5H6.91893C6.18913 0.5 5.51727 0.897523 5.16594 1.5372L1.64877 7.94099Z"
                            fill="#009DC3"
                          />
                          <text
                            x="10"
                            font-weight="700"
                            y="11"
                            fill="white"
                            font-size="9px"
                            font-family="inherit"
                          >
                            تایید ایران‌دکور
                          </text>
                          <path
                            d="M7 9C7 9.82843 6.32843 10.5 5.5 10.5C4.67157 10.5 4 9.82843 4 9C4 8.17157 4.67157 7.5 5.5 7.5C6.32843 7.5 7 8.17157 7 9Z"
                            fill="white"
                          />
                        </svg>