<svg xmlns="http://www.w3.org/2000/svg" width="20" height="20" viewBox="0 0 20 20" fill="none"><div xmlns="" id="in-page-channel-node-id" data-channel-name="in_page_channel_WCKhj1"/>
<g opacity="0.8">
<rect x="1.11111" y="1.11108" width="17.7778" height="17.7778" rx="8.88889" fill="#F5F5F5"/>
<path fill-rule="evenodd" clip-rule="evenodd" d="M13.7917 6.66675C13.64 6.66675 13.5046 6.72786 13.4071 6.82786L8.37501 11.9945L6.59292 10.1667C6.49542 10.0612 6.36001 10.0001 6.20834 10.0001C5.91042 10.0001 5.66667 10.2501 5.66667 10.5556C5.66667 10.7112 5.72626 10.8501 5.82376 10.9501L7.99042 13.1723C8.08792 13.2723 8.22334 13.3334 8.37501 13.3334C8.52667 13.3334 8.66209 13.2723 8.75959 13.1723L14.1763 7.61675C14.2738 7.51675 14.3333 7.37786 14.3333 7.2223C14.3333 6.91675 14.0896 6.66675 13.7917 6.66675Z" fill="#848484"/>
<rect x="1.11111" y="1.11108" width="17.7778" height="17.7778" rx="8.88889" stroke="#E0E0E0" stroke-miterlimit="0" stroke-linejoin="bevel"/>
</g>
</svg>