<svg xmlns="http://www.w3.org/2000/svg" width="24" height="24" viewBox="0 0 24 24" fill="none"><div xmlns="" id="in-page-channel-node-id" data-channel-name="in_page_channel_fdN1Fn"/><link xmlns="" type="text/css" rel="stylesheet" id="dark-mode-custom-link"/><link xmlns="" type="text/css" rel="stylesheet" id="dark-mode-general-link"/><style xmlns="" lang="en" type="text/css" id="dark-mode-custom-style"/><style xmlns="" lang="en" type="text/css" id="dark-mode-native-style"/><style xmlns="" lang="en" type="text/css" id="dark-mode-native-sheet"/><style xmlns="" type="text/css" id="block-image-video"/>
<path d="M5.25 12.85H9C9.57022 12.85 10.1171 13.0765 10.5203 13.4797C10.9235 13.8829 11.15 14.4298 11.15 15V18.75C11.15 19.3202 10.9235 19.8671 10.5203 20.2703C10.1171 20.6735 9.57022 20.9 9 20.9H5.25C4.67978 20.9 4.13292 20.6735 3.72972 20.2703C3.32652 19.8671 3.1 19.3202 3.1 18.75V15C3.1 14.4298 3.32652 13.8829 3.72972 13.4797C4.13292 13.0765 4.67978 12.85 5.25 12.85ZM9.60104 19.351C9.76045 19.1916 9.85 18.9754 9.85 18.75V15C9.85 14.7746 9.76045 14.5584 9.60104 14.399C9.44163 14.2396 9.22543 14.15 9 14.15H5.25C5.02457 14.15 4.80837 14.2396 4.64896 14.399C4.48955 14.5584 4.4 14.7746 4.4 15V18.75C4.4 18.9754 4.48955 19.1916 4.64896 19.351C4.80837 19.5104 5.02457 19.6 5.25 19.6H9C9.22543 19.6 9.44163 19.5104 9.60104 19.351Z" fill="#121212" stroke="white" stroke-width="0.2"/>
<path d="M15 12.85H18.75C19.3202 12.85 19.8671 13.0765 20.2703 13.4797C20.6735 13.8829 20.9 14.4298 20.9 15V18.75C20.9 19.3202 20.6735 19.8671 20.2703 20.2703C19.8671 20.6735 19.3202 20.9 18.75 20.9H15C14.4298 20.9 13.8829 20.6735 13.4797 20.2703C13.0765 19.8671 12.85 19.3202 12.85 18.75V15C12.85 14.4298 13.0765 13.8829 13.4797 13.4797C13.8829 13.0765 14.4298 12.85 15 12.85ZM19.351 19.351C19.5104 19.1916 19.6 18.9754 19.6 18.75V15C19.6 14.7746 19.5104 14.5584 19.351 14.399C19.1916 14.2396 18.9754 14.15 18.75 14.15H15C14.7746 14.15 14.5584 14.2396 14.399 14.399C14.2396 14.5584 14.15 14.7746 14.15 15V18.75C14.15 18.9754 14.2396 19.1916 14.399 19.351C14.5584 19.5104 14.7746 19.6 15 19.6H18.75C18.9754 19.6 19.1916 19.5104 19.351 19.351Z" fill="#121212" stroke="white" stroke-width="0.2"/>
<path d="M5.25 3.1H9C9.57022 3.1 10.1171 3.32652 10.5203 3.72972C10.9235 4.13292 11.15 4.67978 11.15 5.25V9C11.15 9.57022 10.9235 10.1171 10.5203 10.5203C10.1171 10.9235 9.57022 11.15 9 11.15H5.25C4.67978 11.15 4.13292 10.9235 3.72972 10.5203C3.32652 10.1171 3.1 9.57022 3.1 9V5.25C3.1 4.67978 3.32652 4.13292 3.72972 3.72972C4.13292 3.32652 4.67978 3.1 5.25 3.1ZM9.60104 9.60104C9.76045 9.44163 9.85 9.22543 9.85 9V5.25C9.85 5.02457 9.76045 4.80837 9.60104 4.64896C9.44163 4.48955 9.22543 4.4 9 4.4H5.25C5.02457 4.4 4.80837 4.48955 4.64896 4.64896C4.48955 4.80837 4.4 5.02457 4.4 5.25V9C4.4 9.22543 4.48955 9.44163 4.64896 9.60104C4.80837 9.76045 5.02457 9.85 5.25 9.85H9C9.22543 9.85 9.44163 9.76045 9.60104 9.60104Z" fill="#121212" stroke="white" stroke-width="0.2"/>
<path d="M16.225 7.875V7.775H16.125H13.5C13.3276 7.775 13.1623 7.70652 13.0404 7.58462C12.9185 7.46272 12.85 7.29739 12.85 7.125C12.85 6.95261 12.9185 6.78728 13.0404 6.66538C13.1623 6.54348 13.3276 6.475 13.5 6.475H16.125H16.225V6.375V3.75C16.225 3.57761 16.2935 3.41228 16.4154 3.29038C16.5373 3.16848 16.7026 3.1 16.875 3.1C17.0474 3.1 17.2127 3.16848 17.3346 3.29038C17.4565 3.41228 17.525 3.57761 17.525 3.75V6.375V6.475H17.625H20.25C20.4224 6.475 20.5877 6.54348 20.7096 6.66538C20.8315 6.78728 20.9 6.95261 20.9 7.125C20.9 7.29739 20.8315 7.46272 20.7096 7.58462C20.5877 7.70652 20.4224 7.775 20.25 7.775H17.625H17.525V7.875V10.5C17.525 10.6724 17.4565 10.8377 17.3346 10.9596C17.2127 11.0815 17.0474 11.15 16.875 11.15C16.7026 11.15 16.5373 11.0815 16.4154 10.9596C16.2935 10.8377 16.225 10.6724 16.225 10.5V7.875Z" fill="#121212" stroke="white" stroke-width="0.2"/>
</svg>