<svg xmlns="http://www.w3.org/2000/svg" width="33" height="30" viewBox="0 0 33 30" fill="none"><div xmlns="" id="in-page-channel-node-id" data-channel-name="in_page_channel_MnEd9N"/>
<path d="M11.196 6.9204H29.9592L19.7096 14.9692C19.4924 15.1396 19.234 15.2228 18.9996 15.2456C18.7636 15.2224 18.5044 15.1392 18.2848 14.9692L10.96 9.2152C10.8824 9.1528 10.7948 9.1052 10.6984 9.0756C11.0432 8.5892 11.24 8.0008 11.2296 7.3668C11.2276 7.2216 11.2148 7.072 11.196 6.9204ZM6.42438 1.744C6.44798 1.748 6.48678 1.7628 6.57118 1.802C6.73798 1.8812 7.00318 2.0852 7.26278 2.3696C7.78558 2.9392 8.30798 3.802 8.57918 4.3716C8.58758 4.3884 8.59638 4.4068 8.60438 4.4256C9.37398 5.746 9.70598 6.756 9.71598 7.3896C9.72678 8.026 9.55598 8.3 9.01638 8.61L7.62438 9.4124C6.71758 9.9344 6.28918 10.87 6.18278 11.7428C6.07598 12.616 6.23318 13.4644 6.62158 14.1352L10.0576 20.0572C10.4468 20.7276 11.1112 21.2884 11.9236 21.6328C12.7368 21.978 13.7652 22.0756 14.672 21.5548L16.064 20.754C16.6032 20.4448 16.9292 20.4384 17.4768 20.764C18.026 21.0904 18.7392 21.8788 19.5056 23.2C19.5164 23.2196 19.5268 23.236 19.5392 23.2548C19.8984 23.7728 20.3876 24.6516 20.6236 25.3876C20.7408 25.7532 20.7868 26.0836 20.772 26.2664C20.7556 26.45 20.7516 26.4312 20.7032 26.46L19.644 27.0672C16.9832 28.2212 14.5444 27.9608 12.3648 26.8304C10.1812 25.6952 8.28318 23.6452 6.95998 21.2384C6.95558 21.2336 6.95358 21.2276 6.94998 21.2244L4.05158 16.2292C4.04678 16.2244 4.04478 16.22 4.04078 16.2136C2.60678 13.8696 1.77118 11.2084 1.87598 8.76C1.98078 6.3152 2.97278 4.0864 5.30958 2.3716L6.36918 1.7664C6.39358 1.7524 6.40158 1.7416 6.42438 1.744ZM6.43518 0.2556C6.15478 0.2512 5.86878 0.31 5.61158 0.4592L4.49118 1.1036C4.46598 1.118 4.44278 1.1328 4.41998 1.1472C1.72438 3.12 0.483182 5.8664 0.361982 8.6972C0.240782 11.5268 1.18558 14.4472 2.74638 17.0004L5.63518 21.9784L5.62838 21.9636C7.07038 24.584 9.13678 26.8572 11.662 28.1668C14.1884 29.4784 17.198 29.7824 20.2636 28.4456C20.2888 28.4348 20.3144 28.4228 20.3372 28.4088L21.4592 27.7644C21.978 27.4692 22.2388 26.8948 22.2812 26.3932C22.3248 25.8932 22.2228 25.4064 22.068 24.9268C21.7648 23.9784 21.236 23.0572 20.7992 22.4252C19.974 21.0056 19.1772 20.0204 18.2564 19.4696C17.3284 18.9164 16.2144 18.9244 15.3056 19.4468L13.9136 20.2492C13.5024 20.486 13.0216 20.4584 12.5156 20.2444C12.012 20.0304 11.5456 19.6024 11.3724 19.3024L7.93638 13.3808C7.76278 13.0792 7.62078 12.464 7.68798 11.9216C7.75278 11.3808 7.97238 10.9572 8.38398 10.72L9.73638 9.9424C9.77158 10.1236 9.87398 10.288 10.0224 10.3984L17.3476 16.1536C17.824 16.528 18.3884 16.7364 18.9568 16.7692C18.9856 16.7708 19.0152 16.7708 19.0444 16.7692C19.6132 16.7364 20.1748 16.5276 20.6516 16.1536L30.7404 8.228V21.3216C30.7404 21.5208 30.5132 21.7832 30.0676 21.7832H23.0832C22.6628 21.7808 22.3224 22.12 22.3224 22.538C22.3224 22.9552 22.6632 23.2944 23.0832 23.292H30.0676C31.2092 23.292 32.2584 22.4668 32.2584 21.3216V7.382C32.2584 6.236 31.2092 5.4112 30.0676 5.4112H10.7804C10.5668 4.8772 10.2848 4.3112 9.92958 3.696C9.59718 3.004 9.05798 2.0892 8.38318 1.3536C8.04238 0.9808 7.67478 0.6504 7.21518 0.4368V0.4388C6.98678 0.3308 6.71518 0.2616 6.43518 0.2556Z" fill="#5B5B5B"/>
</svg>