<svg xmlns="http://www.w3.org/2000/svg" style="transform: rotate(180deg)" width="436" height="209" viewBox="0 0 436 209" fill="none"><div xmlns="" id="in-page-channel-node-id" data-channel-name="in_page_channel_DVmsKZ"/><link xmlns="" type="text/css" rel="stylesheet" id="dark-mode-custom-link"/><link xmlns="" type="text/css" rel="stylesheet" id="dark-mode-general-link"/><style xmlns="" lang="en" type="text/css" id="dark-mode-custom-style"/><style xmlns="" lang="en" type="text/css" id="dark-mode-native-style"/><style xmlns="" lang="en" type="text/css" id="dark-mode-native-sheet"/><style xmlns="" type="text/css" id="block-image-video"/>
<path d="M78.2588 200.31L78.5856 200.028L78.9123 200.31L83.3954 204.181L87.7376 207.93H435.061V194.452C429.643 194.172 425.303 190.001 425.303 184.8C425.303 179.635 429.646 175.469 435.061 175.151V167.6C429.646 167.283 425.303 163.116 425.303 157.952C425.303 152.787 429.646 148.621 435.061 148.303V140.752C429.646 140.435 425.303 136.268 425.303 131.104C425.303 125.902 429.643 121.732 435.061 121.452V113.867C429.643 113.587 425.303 109.416 425.303 104.215C425.303 99.0502 429.646 94.8835 435.061 94.5663V87.0152C429.646 86.698 425.303 82.5313 425.303 77.3667C425.303 72.202 429.646 68.0353 435.061 67.7182V60.167C429.646 59.8498 425.303 55.6832 425.303 50.5185C425.303 45.3171 429.643 41.1466 435.061 40.8665V33.2816C429.643 33.0015 425.303 28.831 425.303 23.6296C425.303 18.465 429.646 14.2983 435.061 13.9811V0.5H87.7376L83.3954 4.24884L78.9123 8.11921L78.5856 8.4013L78.2588 8.11921L73.7758 4.24884L69.4335 0.5H0.500061V13.9811C5.91507 14.2983 10.2573 18.465 10.2573 23.6296C10.2573 28.831 5.91803 33.0015 0.500061 33.2816V40.8665C5.91803 41.1466 10.2573 45.3171 10.2573 50.5185C10.2573 55.6832 5.91507 59.8498 0.500061 60.167V67.7182C5.91507 68.0353 10.2573 72.202 10.2573 77.3667C10.2573 82.5313 5.91507 86.698 0.500061 87.0152V94.5663C5.91507 94.8835 10.2573 99.0502 10.2573 104.215C10.2573 109.416 5.91803 113.587 0.500061 113.867V121.452C5.91803 121.732 10.2573 125.902 10.2573 131.104C10.2573 136.268 5.91507 140.435 0.500061 140.752V148.303C5.91507 148.621 10.2573 152.787 10.2573 157.952C10.2573 163.116 5.91507 167.283 0.500061 167.6V175.151C5.91507 175.469 10.2573 179.635 10.2573 184.8C10.2573 190.001 5.91803 194.172 0.500061 194.452V207.93H69.4335L73.7758 204.181L78.2588 200.31Z" fill="white" stroke="#E0E0E0"/>
<line x1="78.5" y1="9" x2="78.5" y2="201.054" stroke="#E0E0E0" stroke-dasharray="3 3"/>
</svg>