<svg xmlns="http://www.w3.org/2000/svg" width="36" height="36" viewBox="0 0 36 36" fill="none"><div xmlns="" id="in-page-channel-node-id" data-channel-name="in_page_channel_jZA9-3"/>
<g clip-path="url(#clip0_1730_259352)">
<path d="M24.3281 22.4297C23.9399 22.4297 23.625 22.7445 23.625 23.1328V27.9844C23.625 29.9229 22.0479 31.5 20.1094 31.5H12.5179C12.1297 31.5 11.815 31.8145 11.8147 32.2026L11.8138 33.6006L10.1355 31.9224C10.0269 31.673 9.77829 31.5 9.49071 31.5H4.92188C2.98336 31.5 1.40625 29.9229 1.40625 27.9844V17.1562C1.40625 15.2177 2.98336 13.6406 4.92188 13.6406H12.0234C12.4117 13.6406 12.7266 13.3258 12.7266 12.9375C12.7266 12.5492 12.4117 12.2344 12.0234 12.2344H4.92188C2.20795 12.2344 0 14.4423 0 17.1562V27.9844C0 30.6983 2.20795 32.9062 4.92188 32.9062H9.13064L12.0184 35.7941C12.153 35.9286 12.3327 36 12.5158 36C12.6063 36 12.6976 35.9825 12.7844 35.9466C13.0472 35.8379 13.2185 35.5816 13.2188 35.2974L13.2204 32.9062H20.1094C22.8233 32.9062 25.0312 30.6983 25.0312 27.9844V23.1328C25.0312 22.7445 24.7164 22.4297 24.3281 22.4297Z" fill="#5B5B5B"/>
<path d="M25.7804 0H24.0009C18.3658 0 13.7812 4.58452 13.7812 10.2196C13.7812 15.8548 18.3658 20.4392 24.0008 20.4392H25.7804C26.6599 20.4392 27.5304 20.3275 28.3742 20.1067L31.003 22.734C31.1375 22.8684 31.3172 22.9398 31.5001 22.9398C31.5908 22.9398 31.6822 22.9223 31.7692 22.8862C32.0318 22.7774 32.2031 22.521 32.2031 22.2367V18.1687C33.3161 17.2673 34.2406 16.1288 34.8895 14.8568C35.6264 13.4122 36 11.852 36 10.2196C36 4.58452 31.4155 0 25.7804 0ZM31.0769 17.2642C30.9007 17.397 30.7969 17.605 30.7969 17.8258V20.5399L29.0763 18.8202C28.9424 18.6865 28.7628 18.6144 28.5791 18.6144C28.5102 18.6144 28.4406 18.6246 28.3727 18.6455C27.5358 18.9027 26.6636 19.033 25.7804 19.033H24.0009C19.1411 19.033 15.1875 15.0794 15.1875 10.2196C15.1875 5.35992 19.1412 1.40625 24.0009 1.40625H25.7804C30.6401 1.40625 34.5938 5.35992 34.5938 10.2196C34.5938 13.0132 33.312 15.5809 31.0769 17.2642Z" fill="#5B5B5B"/>
<path d="M28.0577 7.69368C27.9563 6.22169 26.7697 5.03509 25.2976 4.93363C24.4631 4.87633 23.6668 5.15779 23.0572 5.72683C22.4561 6.28799 22.1113 7.08126 22.1113 7.90328C22.1113 8.29162 22.4262 8.60641 22.8145 8.60641C23.2027 8.60641 23.5176 8.29162 23.5176 7.90328C23.5176 7.46319 23.6949 7.05531 24.0168 6.75487C24.3384 6.4547 24.7587 6.30613 25.201 6.33665C25.9764 6.39009 26.6014 7.01509 26.6549 7.79043C26.7089 8.5735 26.1951 9.26551 25.4333 9.43595C24.8161 9.57405 24.3851 10.1104 24.3851 10.7402V12.4294C24.3851 12.8178 24.7 13.1326 25.0882 13.1326C25.4766 13.1326 25.7913 12.8178 25.7913 12.4294V10.7964C27.2081 10.4541 28.1586 9.15766 28.0577 7.69368Z" fill="#5B5B5B"/>
<path d="M25.585 14.7136C25.4542 14.5828 25.2728 14.5076 25.0879 14.5076C24.903 14.5076 24.7216 14.5828 24.5908 14.7136C24.46 14.8444 24.3848 15.0258 24.3848 15.2107C24.3848 15.3963 24.4601 15.5777 24.5908 15.7085C24.7216 15.8393 24.903 15.9138 25.0879 15.9138C25.2728 15.9138 25.4542 15.8393 25.585 15.7085C25.7158 15.577 25.791 15.3963 25.791 15.2107C25.791 15.0258 25.7157 14.8444 25.585 14.7136Z" fill="#5B5B5B"/>
<path d="M19.3359 21.7969H4.5C4.11173 21.7969 3.79688 22.1117 3.79688 22.5C3.79688 22.8883 4.11173 23.2031 4.5 23.2031H19.3359C19.7243 23.2031 20.0391 22.8883 20.0391 22.5C20.0391 22.1117 19.7242 21.7969 19.3359 21.7969Z" fill="#5B5B5B"/>
<path d="M19.833 25.9404C19.7023 25.8096 19.5209 25.7344 19.3359 25.7344C19.151 25.7344 18.9696 25.8096 18.8388 25.9404C18.708 26.0712 18.6328 26.2526 18.6328 26.4375C18.6328 26.6224 18.708 26.8038 18.8388 26.9346C18.9696 27.0654 19.151 27.1406 19.3359 27.1406C19.5209 27.1406 19.7023 27.0654 19.833 26.9346C19.9638 26.8038 20.0391 26.6231 20.0391 26.4375C20.0391 26.2526 19.9638 26.0712 19.833 25.9404Z" fill="#5B5B5B"/>
<path d="M16.5703 25.7344H4.5C4.11173 25.7344 3.79688 26.0492 3.79688 26.4375C3.79688 26.8258 4.11173 27.1406 4.5 27.1406H16.5703C16.9587 27.1406 17.2735 26.8258 17.2735 26.4375C17.2735 26.0492 16.9586 25.7344 16.5703 25.7344Z" fill="#5B5B5B"/>
<path d="M14.7656 17.8594H4.5C4.11173 17.8594 3.79688 18.1742 3.79688 18.5625C3.79688 18.9508 4.11173 19.2656 4.5 19.2656H14.7656C15.154 19.2656 15.4688 18.9508 15.4688 18.5625C15.4688 18.1742 15.1539 17.8594 14.7656 17.8594Z" fill="#5B5B5B"/>
</g>
<defs>
<clipPath id="clip0_1730_259352">
<rect width="36" height="36" fill="white"/>
</clipPath>
</defs>
</svg>