<svg xmlns="http://www.w3.org/2000/svg" width="24" height="24" viewBox="0 0 24 24" fill="none"><div xmlns="" id="in-page-channel-node-id" data-channel-name="in_page_channel_nCvliZ"/><link xmlns="" type="text/css" rel="stylesheet" id="dark-mode-custom-link"/><link xmlns="" type="text/css" rel="stylesheet" id="dark-mode-general-link"/><style xmlns="" lang="en" type="text/css" id="dark-mode-custom-style"/><style xmlns="" lang="en" type="text/css" id="dark-mode-native-style"/><style xmlns="" lang="en" type="text/css" id="dark-mode-native-sheet"/><style xmlns="" type="text/css" id="block-image-video"/>
<path d="M16.3621 10.8546L14.6661 12.54L14.6661 12.5401C14.4999 12.7054 14.4991 12.9748 14.6644 13.1413L14.6644 13.1414C14.8298 13.3076 15.0992 13.3084 15.2654 13.1431L16.7 11.7173V17.1628H2.125C1.94561 17.1628 1.8 17.0171 1.8 16.8378V10.1377H14.6875C14.7186 10.1377 14.7491 10.1344 14.7784 10.1281C15.3027 10.4104 15.9162 10.6741 16.3621 10.8546ZM19.5764 13.1449L19.5765 13.1449C19.7423 12.9791 19.7423 12.7097 19.5765 12.5439L19.5411 12.5793L19.5765 12.5439L17.8847 10.8525C18.3253 10.6741 18.927 10.4154 19.4449 10.1377H21.2V16.8378C21.2 17.0171 21.0544 17.1628 20.875 17.1628H17.55V11.7197L18.9751 13.1449L18.9752 13.1449C19.1413 13.3106 19.4103 13.3106 19.5764 13.1449ZM14.4979 8.92966L14.4978 8.92962C14.2594 8.69154 14.2594 8.30472 14.4979 8.06623C14.736 7.82813 15.1228 7.82813 15.3609 8.06623C15.5455 8.25088 15.7448 8.57783 15.9336 8.94868C16.102 9.27944 16.26 9.64097 16.39 9.95867C16.0724 9.82858 15.7109 9.67054 15.3801 9.5022C15.0092 9.31345 14.6823 9.1143 14.4979 8.92966ZM16.7 8.61796C16.4645 8.14822 16.2047 7.70812 15.9623 7.46529L15.9622 7.46527C15.3922 6.89524 14.4665 6.89524 13.8965 7.46527L13.8965 7.46528C13.4021 7.96001 13.3368 8.72234 13.7008 9.28775H1.8V6.33775C1.8 6.15836 1.94561 6.01275 2.125 6.01275H16.7V8.61796ZM4.29504 5.16275H2.125C1.47601 5.16275 0.95 5.68876 0.95 6.33775V16.8378C0.95 17.4867 1.47601 18.0127 2.125 18.0127H9.30616L13.1746 21.8812C13.3951 22.1017 13.694 22.2255 14.0054 22.2255C14.3171 22.2255 14.616 22.1017 14.8365 21.8812L18.705 18.0127H20.875C21.524 18.0127 22.05 17.4867 22.05 16.8378V16.8251V16.8123V16.7995V16.7865V16.7735V16.7603V16.7471V16.7338V16.7204V16.7069V16.6934V16.6797V16.6659V16.6521V16.6382V16.6242V16.6101V16.5959V16.5816V16.5672V16.5528V16.5383V16.5237V16.509V16.4942V16.4793V16.4644V16.4493V16.4342V16.419V16.4038V16.3884V16.373V16.3575V16.3419V16.3262V16.3104V16.2946V16.2787V16.2627V16.2466V16.2305V16.2142V16.1979V16.1816V16.1651V16.1486V16.132V16.1153V16.0985V16.0817V16.0648V16.0478V16.0308V16.0136V15.9964V15.9792V15.9618V15.9444V15.9269V15.9094V15.8918V15.8741V15.8563V15.8385V15.8206V15.8026V15.7846V15.7665V15.7483V15.73V15.7117V15.6934V15.6749V15.6564V15.6378V15.6192V15.6005V15.5817V15.5629V15.544V15.5251V15.506V15.487V15.4678V15.4486V15.4294V15.41V15.3906V15.3712V15.3517V15.3321V15.3125V15.2928V15.2731V15.2533V15.2334V15.2135V15.1935V15.1735V15.1534V15.1333V15.1131V15.0928V15.0725V15.0521V15.0317V15.0112V14.9907V14.9701V14.9495V14.9288V14.9081V14.8873V14.8665V14.8456V14.8247V14.8037V14.7826V14.7615V14.7404V14.7192V14.698V14.6767V14.6554V14.634V14.6126V14.5911V14.5696V14.548V14.5264V14.5048V14.4831V14.4613V14.4395V14.4177V14.3958V14.3739V14.352V14.33V14.3079V14.2858V14.2637V14.2415V14.2193V14.1971V14.1748V14.1525V14.1301V14.1077V14.0853V14.0628V14.0403V14.0177V13.9951V13.9725V13.9498V13.9271V13.9044V13.8816V13.8588V13.836V13.8131V13.7902V13.7673V13.7443V13.7213V13.6983V13.6752V13.6521V13.629V13.6058V13.5826V13.5594V13.5362V13.5129V13.4896V13.4662V13.4429V13.4195V13.3961V13.3726V13.3491V13.3256V13.3021V13.2786V13.255V13.2314V13.2077V13.1841V13.1604V13.1367V13.113V13.0893V13.0655V13.0417V13.0179V12.9941V12.9702V12.9463V12.9224V12.8985V12.8746V12.8506V12.8267V12.8027V12.7787V12.7547V12.7306V12.7065V12.6825V12.6584V12.6343V12.6102V12.586V12.5619V12.5377V12.5135V12.4893V12.4651V12.4409V12.4167V12.3924V12.3681V12.3439V12.3196V12.2953V12.271V12.2467V12.2224V12.198V12.1737V12.1493V12.125V12.1006V12.0762V12.0519V12.0275V12.0031V11.9787V11.9543V11.9299V11.9055V11.881V11.8566V11.8322V11.8077V11.7833V11.7589V11.7344V11.71V11.6855V11.6611V11.6366V11.6122V11.5878V11.5633V11.5389V11.5144V11.49V11.4655V11.4411V11.4166V11.3922V11.3678V11.3433V11.3189V11.2945V11.27V11.2456V11.2212V11.1968V11.1724V11.148V11.1236V11.0993V11.0749V11.0505V11.0262V11.0018V10.9775V10.9531V10.9288V10.9045V10.8802V10.8559V10.8316V10.8074V10.7831V10.7588V10.7346V10.7104V10.6862V10.662V10.6378V10.6136V10.5895V10.5653V10.5412V10.5171V10.493V10.469V10.4449V10.4208V10.3968V10.3728V10.3488V10.3249V10.3009V10.277V10.2531V10.2292V10.2053V10.1814V10.1576V10.1338V10.11V10.0862V10.0625V10.0388V10.0151V9.99141V9.96776V9.94413V9.92053V9.89695V9.8734V9.84987V9.82637V9.80289V9.77945V9.75603V9.73263V9.70927V9.68593V9.66262V9.63934V9.61609V9.59287V9.56968V9.54652V9.52339V9.50029V9.47722V9.45419V9.43118V9.40821V9.38527V9.36237V9.3395V9.31666V9.29385V9.27108V9.24835V9.22565V9.20299V9.18036V9.15777V9.13522V9.1127V9.09022V9.06778V9.04538V9.02302V9.00069V8.97841V8.95616V8.93395V8.91179V8.88966V8.86758V8.84554V8.82354V8.80158V8.77966V8.75779V8.73596V8.71418V8.69243V8.67074V8.64908V8.62748V8.60591V8.5844V8.56293V8.5415V8.52013V8.4988V8.47752V8.45628V8.4351V8.41396V8.39287V8.37184V8.35085V8.32991V8.30902V8.28819V8.2674V8.24667V8.22599V8.20536V8.18478V8.16425V8.14378V8.12337V8.103V8.0827V8.06244V8.04225V8.0221V8.00202V7.98199V7.96201V7.9421V7.92224V7.90244V7.88269V7.86301V7.84338V7.82381V7.80431V7.78486V7.76547V7.74614V7.72688V7.70767V7.68853V7.66945V7.65043V7.63148V7.61259V7.59376V7.57499V7.55629V7.53766V7.51908V7.50058V7.48214V7.46376V7.44546V7.42722V7.40904V7.39094V7.3729V7.35493V7.33703V7.31919V7.30143V7.28373V7.26611V7.24856V7.23107V7.21366V7.19632V7.17905V7.16186V7.14473V7.12768V7.1107V7.0938V7.07697V7.06021V7.04353V7.02693V7.0104V6.99394V6.97756V6.96126V6.94504V6.92889V6.91282V6.89682V6.88091V6.86507V6.84932V6.83364V6.81804V6.80253V6.78709V6.77173V6.75646V6.74126V6.72615V6.71112V6.69618V6.68131V6.66653V6.65184V6.63722V6.6227V6.60825V6.59389V6.57962V6.56544V6.55133V6.53732V6.52339V6.50955V6.4958V6.48214V6.46856V6.45508V6.44168V6.42837V6.41515V6.40202V6.38899V6.37604V6.36319V6.35042V6.33775C22.05 5.68876 21.524 5.16275 20.875 5.16275H13.6938L9.82536 1.29427C9.60486 1.07377 9.30602 0.95 8.99463 0.95C8.68286 0.95 8.38402 1.07377 8.16352 1.29427L4.29504 5.16275ZM13.7755 21.2802L10.5085 18.0127H17.5027L14.2356 21.2802C14.1744 21.3411 14.0918 21.3755 14.0054 21.3755C13.9194 21.3755 13.8368 21.3411 13.7755 21.2802ZM18.8614 9.5022C18.5307 9.67055 18.1692 9.82858 17.8515 9.95867C17.9815 9.64096 18.1396 9.27943 18.3079 8.94868C18.4967 8.57782 18.6958 8.25088 18.8805 8.06623C19.1185 7.82816 19.5054 7.82811 19.7439 8.0662C19.982 8.3047 19.982 8.69156 19.7439 8.92964C19.5592 9.11429 19.2323 9.31345 18.8614 9.5022ZM18.2795 7.46527C18.0396 7.70519 17.7833 8.13793 17.55 8.60121V6.01275H20.875C21.0544 6.01275 21.2 6.15836 21.2 6.33775V9.28775H20.541C20.9049 8.72234 20.8396 7.96 20.3449 7.46527C19.7748 6.89524 18.8495 6.89524 18.2795 7.46527ZM12.4915 5.16275H5.49733L8.76439 1.89532C8.7644 1.89531 8.76442 1.8953 8.76443 1.89528C8.82565 1.83441 8.90824 1.8 8.99463 1.8C9.0806 1.8 9.16319 1.83438 9.22442 1.89526C9.22445 1.89528 9.22447 1.8953 9.22449 1.89532L12.4915 5.16275Z" fill="black" stroke="#121212" stroke-width="0.1"/>
</svg>