<svg xmlns="http://www.w3.org/2000/svg" width="36" height="36" viewBox="0 0 36 36" fill="none"><div xmlns="" id="in-page-channel-node-id" data-channel-name="in_page_channel_-LiKaz"/>
<path d="M30.7007 20.7L29.8907 20.2163C29.5082 19.9913 29.2269 19.6144 29.1144 19.1644L28.1919 15.9131L31.3363 12.7688C31.4713 12.6338 31.5275 12.4425 31.4882 12.2569C31.4488 12.0713 31.3194 11.9194 31.145 11.8463C28.3494 10.7269 25.2838 11.1375 23.5063 12.8138C22.1732 12.1613 20.7332 11.6663 19.2707 11.3456C19.5519 10.8113 19.7094 10.2038 19.7094 9.55688C19.7094 7.38563 17.9375 5.61938 15.7607 5.61938C13.5838 5.61938 11.8119 7.39126 11.8119 9.56251C11.8119 10.1925 11.9694 10.7888 12.2338 11.3175C8.02065 12.33 5.22503 15.3113 4.50503 19.5975C4.38128 20.3625 4.3644 21.1275 4.44315 21.8644C3.76815 21.7069 3.1719 21.2963 2.8119 20.7113C2.3619 19.98 2.3394 19.08 2.75003 18.2531C2.89065 17.9719 2.77815 17.6344 2.50253 17.4994C2.22128 17.3588 1.88378 17.4713 1.74878 17.7469C1.15253 18.9338 1.1919 20.2275 1.85565 21.3019C2.45753 22.275 3.50378 22.9106 4.6569 23.0344C5.23628 25.2844 6.76065 27.1913 8.92628 28.17L10.1582 31.6856C10.2369 31.9106 10.4507 32.0625 10.6869 32.0625H14.0619C14.3319 32.0625 14.5625 31.8713 14.6132 31.6125L15.0857 29.25H19.2257L19.6982 31.6125C19.7488 31.8713 19.9794 32.0625 20.2494 32.0625H23.6244C23.8382 32.0625 24.0294 31.9444 24.125 31.7588L25.8857 28.3556C25.9419 28.2488 26.0319 28.1588 26.15 28.1081L30.4082 26.1731C31.415 25.7231 32.0619 24.7219 32.0619 23.6138V23.1131C32.0619 22.1231 31.5444 21.2119 30.7007 20.7V20.7ZM15.7607 6.75001C17.3188 6.75001 18.5844 8.01001 18.5844 9.56251C18.5844 11.115 17.3188 12.375 15.7607 12.375C14.2025 12.375 12.9369 11.115 12.9369 9.56251C12.9369 8.01001 14.2025 6.75001 15.7607 6.75001ZM30.9369 23.6138C30.9369 24.2775 30.5488 24.8794 29.9469 25.1494L25.6944 27.0788C25.34 27.2363 25.0532 27.5119 24.8844 27.8438L23.2813 30.9375H20.7107L20.2382 28.575C20.1875 28.3163 19.9569 28.125 19.6869 28.125H14.6244C14.3544 28.125 14.1238 28.3163 14.0732 28.575L13.6007 30.9375H11.0863L9.90503 27.5681C9.8544 27.4163 9.73628 27.2925 9.59003 27.2363C6.71565 26.0494 5.0844 22.9838 5.61878 19.7831C6.51315 14.4394 10.4675 12.8138 12.9425 12.3188C13.6625 13.0444 14.6582 13.5 15.7607 13.5C16.8463 13.5 17.8307 13.0613 18.545 12.3469C20.2157 12.6619 21.875 13.2244 23.3657 14.0006C23.3657 13.995 23.3657 13.995 23.3713 13.9894C23.5963 14.1075 23.8719 14.0681 24.0463 13.8713C25.2782 12.4819 27.6407 12.0038 29.8963 12.6169L26.0375 16.4756C25.8182 16.695 25.8182 17.0494 26.0375 17.2688C26.15 17.3813 26.2907 17.4375 26.4369 17.4375C26.5832 17.4375 26.7238 17.3813 26.8363 17.2744L27.2863 16.8244L28.0344 19.4513C28.2144 20.1769 28.6869 20.8069 29.3169 21.1838L30.1213 21.6675C30.6275 21.9713 30.9425 22.5225 30.9425 23.1131V23.6138H30.9369Z" fill="#67AD5B"/>
<path d="M19.4164 14.7094C17.3914 13.4719 14.1007 13.4719 12.0814 14.7094C11.817 14.8725 11.7326 15.2156 11.8957 15.4856C12.0589 15.75 12.402 15.8344 12.6664 15.6713C14.337 14.6475 17.1607 14.6475 18.8314 15.6713C18.9214 15.7219 19.0226 15.75 19.1239 15.75C19.3151 15.75 19.5007 15.6544 19.602 15.48C19.7651 15.2156 19.6807 14.8669 19.4164 14.7094V14.7094Z" fill="#67AD5B"/>
<path d="M25.5938 21.375C26.0597 21.375 26.4375 20.9972 26.4375 20.5312C26.4375 20.0653 26.0597 19.6875 25.5938 19.6875C25.1278 19.6875 24.75 20.0653 24.75 20.5312C24.75 20.9972 25.1278 21.375 25.5938 21.375Z" fill="#67AD5B"/>
</svg>