<svg xmlns="http://www.w3.org/2000/svg" xmlns:xlink="http://www.w3.org/1999/xlink" width="25" height="24" viewBox="0 0 25 24" fill="none"><div xmlns="" id="in-page-channel-node-id" data-channel-name="in_page_channel_O6xbQ4"/><link xmlns="" type="text/css" rel="stylesheet" id="dark-mode-custom-link"/><link xmlns="" type="text/css" rel="stylesheet" id="dark-mode-general-link"/><style xmlns="" lang="en" type="text/css" id="dark-mode-custom-style"/><style xmlns="" lang="en" type="text/css" id="dark-mode-native-style"/><style xmlns="" lang="en" type="text/css" id="dark-mode-native-sheet"/><style xmlns="" type="text/css" id="block-image-video"/>

<path d="M5.50391 10.7516L5.50392 10.7516C6.95605 14.1852 9.0331 17.2693 11.6773 19.9161C11.7663 20.0053 11.8833 20.05 12.0001 20.05H12.0004C12.1173 20.05 12.2339 20.0052 12.3231 19.9162L12.3232 19.9161C14.9668 17.2699 17.0435 14.1864 18.4957 10.7516C18.8637 9.88165 19.0502 8.95706 19.0502 8.00398C19.0502 7.05091 18.8637 6.12663 18.496 5.25699C18.1408 4.41641 17.6325 3.66158 16.9855 3.01421C16.3379 2.36565 15.5841 1.85644 14.7446 1.50156C13.0062 0.766148 10.9943 0.766148 9.25585 1.50156L9.25584 1.50156C8.41579 1.85706 7.66171 2.36626 7.01471 3.01423C6.36863 3.66067 5.85996 4.41518 5.50392 5.25697L5.50391 5.25699C5.13643 6.12694 4.95024 7.05091 4.95024 8.00398C4.95024 8.95706 5.13643 9.88103 5.50391 10.7516ZM9.61129 2.34341L9.61133 2.34339C10.352 2.02954 11.1385 1.86739 11.9501 1.861V1.86141H12.0001C12.8294 1.86141 13.6329 2.02401 14.3889 2.34401C15.119 2.65309 15.7751 3.09616 16.3393 3.66122L16.3393 3.66126C16.9031 4.22476 17.3455 4.88148 17.6549 5.61364L17.6549 5.61367C17.9748 6.36943 18.137 7.17383 18.137 8.00429C18.137 8.83474 17.9745 9.63914 17.6546 10.3949L17.6546 10.3949C16.308 13.5808 14.407 16.4531 12.0001 18.9416C9.59261 16.4531 7.69126 13.5795 6.34502 10.3952C6.02534 9.63885 5.8632 8.83414 5.8632 8.00398C5.8632 7.17385 6.02533 6.36976 6.3447 5.61337C6.65501 4.88055 7.09736 4.22321 7.66057 3.66034L7.66062 3.66029C8.22418 3.09555 8.88023 2.65248 9.61129 2.34341Z" fill="#121212" stroke="#121212" stroke-width="0.1"/>
<path d="M15.7792 17.9505L15.7556 17.9481L15.7388 17.965C15.5612 18.1439 15.3784 18.3204 15.1924 18.4963L15.1113 18.573L15.2225 18.5824C16.7924 18.716 18.0343 18.9393 18.8825 19.1887C19.3069 19.3135 19.6305 19.4441 19.8468 19.572C19.955 19.6359 20.0343 19.698 20.0859 19.7565C20.1377 19.8151 20.1585 19.8664 20.1585 19.9102C20.1585 19.9678 20.1225 20.0379 20.0313 20.1186C19.9411 20.1984 19.8042 20.282 19.6203 20.3665C19.2528 20.5353 18.7076 20.7033 18.0011 20.8521C16.5889 21.1496 14.5403 21.369 11.9999 21.369C9.45942 21.369 7.4109 21.1495 5.99872 20.8519C5.29229 20.703 4.7471 20.535 4.37968 20.3662C4.19577 20.2817 4.05884 20.1981 3.9687 20.1183C3.87751 20.0376 3.84147 19.9675 3.84147 19.91C3.84147 19.8662 3.86232 19.8149 3.91406 19.7563C3.96572 19.6978 4.04497 19.6357 4.15321 19.5717C4.36954 19.4439 4.69307 19.3132 5.11751 19.1885C5.96571 18.9391 7.20759 18.7158 8.77745 18.5822L8.88862 18.5728L8.80758 18.4961C8.62193 18.3204 8.43884 18.1436 8.26119 17.9648L8.24443 17.9479L8.22077 17.9502C6.75319 18.096 5.44244 18.3299 4.49727 18.6507C4.02496 18.8111 3.64071 18.9942 3.37358 19.2011C3.10658 19.408 2.95 19.6441 2.95 19.91C2.95 20.2833 3.25721 20.598 3.75401 20.8596C4.25442 21.123 4.96541 21.3425 5.81266 21.5184C7.50805 21.8704 9.76173 22.05 12.0001 22.05C14.2386 22.05 16.4922 21.8704 18.1875 21.5184C19.0347 21.3425 19.7457 21.123 20.246 20.8596C20.7428 20.598 21.05 20.2832 21.05 19.91C21.05 19.6442 20.8934 19.4081 20.6264 19.2012C20.3593 18.9943 19.975 18.8112 19.5027 18.6509C18.5576 18.33 17.2468 18.0961 15.7792 17.9505Z" fill="#121212" stroke="#121212" stroke-width="0.1"/>

</svg>