<svg xmlns="http://www.w3.org/2000/svg" width="12" height="12" viewBox="0 0 12 12" fill="none"><div xmlns="" id="in-page-channel-node-id" data-channel-name="in_page_channel_RKJPrx"/><link xmlns="" type="text/css" rel="stylesheet" id="dark-mode-custom-link"/><link xmlns="" type="text/css" rel="stylesheet" id="dark-mode-general-link"/><style xmlns="" lang="en" type="text/css" id="dark-mode-custom-style"/><style xmlns="" lang="en" type="text/css" id="dark-mode-native-style"/><style xmlns="" lang="en" type="text/css" id="dark-mode-native-sheet"/><style xmlns="" type="text/css" id="block-image-video"/>
<g clip-path="url(#clip0_5840_76129)">
<path d="M6.49602 2L11.544 2.00179L11.6303 2.01676L11.6926 2.03779L11.7513 2.06673L11.8131 2.10892L11.8706 2.16267L11.9113 2.21334L11.946 2.27081L11.9783 2.3488L11.9898 2.39191L12.0011 2.47832L12.0015 7.5C12.0015 7.77614 11.7777 8 11.5015 8C11.2561 8 11.0519 7.82312 11.0096 7.58988L11.0015 7.5L11.001 3.707L5.85782 8.85347C5.68439 9.02698 5.41516 9.04642 5.22027 8.91168L5.151 8.85392L3.50037 7.20674L0.853553 9.85355C0.658291 10.0488 0.341709 10.0488 0.146447 9.85355C-0.0271197 9.67999 -0.046405 9.41056 0.0885911 9.21569L0.146447 9.14645L3.14645 6.14645C3.31988 5.97301 3.58907 5.95361 3.78393 6.08833L3.85318 6.14608L5.50374 7.79318L10.293 3H6.49602C6.25056 3 6.04642 2.82312 6.00408 2.58988L5.99602 2.5C5.99602 2.22386 6.21988 2 6.49602 2Z" fill="#848484"/>
</g>
<defs>
<clipPath id="clip0_5840_76129">
<rect width="12" height="12" fill="white"/>
</clipPath>
</defs>
</svg>