<svg xmlns="http://www.w3.org/2000/svg" width="36" height="36" viewBox="0 0 36 36" fill="none"><div xmlns="" id="in-page-channel-node-id" data-channel-name="in_page_channel__X4kcx"/><link xmlns="" type="text/theme" rel="stylesheet" id="dark-mode-custom-link"/><link xmlns="" type="text/theme" rel="stylesheet" id="dark-mode-general-link"/><style xmlns="" lang="en" type="text/theme" id="dark-mode-custom-style"/><style xmlns="" lang="en" type="text/theme" id="dark-mode-native-style"/><style xmlns="" lang="en" type="text/theme" id="dark-mode-native-sheet"/>
<path d="M18 26.3262C16.1085 26.3262 14.148 25.9036 12.1708 25.0702C10.6041 24.4092 9.02408 23.4898 7.47392 22.3374C4.84304 20.3812 3.22592 18.4494 3.15716 18.3681C3.07114 18.2646 3.02405 18.1343 3.02405 17.9998C3.02405 17.8652 3.07114 17.7349 3.15716 17.6315C3.22484 17.5501 4.84304 15.6184 7.47392 13.6621C9.02408 12.5101 10.6041 11.5903 12.1708 10.9294C14.148 10.096 16.1085 9.67334 18 9.67334C19.8914 9.67334 21.852 10.096 23.8291 10.9294C25.3958 11.5903 26.9758 12.5098 28.526 13.6621C31.1569 15.6184 32.774 17.5501 32.8428 17.6315C32.9288 17.7349 32.9759 17.8652 32.9759 17.9998C32.9759 18.1343 32.9288 18.2646 32.8428 18.3681C32.7751 18.4494 31.1569 20.3812 28.526 22.3374C26.9758 23.4894 25.3958 24.4092 23.8291 25.0702C21.852 25.9036 19.8914 26.3262 18 26.3262ZM4.36892 17.9998C5.53196 19.2588 6.80945 20.4071 8.18492 21.4299C10.4889 23.1381 14.0601 25.1739 18.0014 25.1739C21.952 25.1739 25.5322 23.1283 27.8402 21.4126C29.2064 20.3944 30.4755 19.252 31.631 17.9998C30.4681 16.7406 29.1906 15.5923 27.815 14.5697C25.511 12.8615 21.9398 10.8257 17.9985 10.8257C14.0479 10.8257 10.4677 12.8712 8.15972 14.587C6.79349 15.6051 5.52447 16.7476 4.36892 17.9998Z" fill="#009DC3"/>
<path d="M18 24.2209C14.5699 24.2209 11.7792 21.4302 11.7792 18.0001C11.7792 14.57 14.5699 11.7793 18 11.7793C21.4301 11.7793 24.2208 14.57 24.2208 18.0001C24.2208 21.4302 21.4301 24.2209 18 24.2209ZM18 12.9313C15.2049 12.9313 12.9312 15.2051 12.9312 18.0001C12.9312 20.7951 15.2049 23.0689 18 23.0689C20.795 23.0689 23.0688 20.7951 23.0688 18.0001C23.0688 15.2051 20.795 12.9313 18 12.9313Z" fill="#009DC3"/>
<path d="M18 21.6646C17.2752 21.6646 16.5666 21.4496 15.964 21.0469C15.3613 20.6442 14.8916 20.0719 14.6142 19.4022C14.3368 18.7326 14.2642 17.9957 14.4056 17.2848C14.547 16.5739 14.8961 15.9209 15.4086 15.4084C15.9211 14.8958 16.5741 14.5468 17.285 14.4054C17.9959 14.264 18.7328 14.3365 19.4025 14.6139C20.0721 14.8913 20.6445 15.361 21.0472 15.9637C21.4499 16.5664 21.6648 17.2749 21.6648 17.9998C21.6637 18.9714 21.2772 19.9029 20.5901 20.5899C19.9031 21.2769 18.9716 21.6634 18 21.6646ZM18 15.487C17.503 15.487 17.0172 15.6343 16.604 15.9104C16.1907 16.1866 15.8687 16.579 15.6785 17.0382C15.4883 17.4973 15.4385 18.0026 15.5355 18.49C15.6324 18.9774 15.8718 19.4252 16.2232 19.7766C16.5746 20.128 17.0223 20.3673 17.5098 20.4643C17.9972 20.5612 18.5025 20.5115 18.9616 20.3213C19.4208 20.1311 19.8132 19.809 20.0893 19.3958C20.3654 18.9826 20.5128 18.4967 20.5128 17.9998C20.512 17.3336 20.2471 16.6949 19.776 16.2238C19.3049 15.7527 18.6662 15.4877 18 15.487Z" fill="#009DC3"/>
</svg>